<svg width="250" height="250" viewBox="0 0 250 250" fill="none" xmlns="http://www.w3.org/2000/svg">
<g opacity="0.6" clip-path="url(#clip0_93_8666)">
<path d="M125.469 239.918C194.47 239.918 250.407 236.653 250.407 232.624C250.407 228.595 194.47 225.33 125.469 225.33C56.4675 225.33 0.530884 228.595 0.530884 232.624C0.530884 236.653 56.4675 239.918 125.469 239.918Z" fill="#F5F5F5"/>
<path d="M149.047 223.732L144.156 222.037L146.772 210.271L151.663 211.965L149.047 223.732Z" fill="#FFC1B0"/>
<path d="M189.687 227.34H184.513L183.179 215.361H188.354L189.687 227.34Z" fill="#FFC1B0"/>
<path d="M184.107 226.741H190.029C190.131 226.741 190.23 226.777 190.31 226.841C190.39 226.906 190.445 226.995 190.467 227.095L191.492 231.696C191.515 231.808 191.513 231.924 191.485 232.035C191.457 232.146 191.405 232.249 191.332 232.337C191.259 232.425 191.167 232.495 191.063 232.543C190.959 232.59 190.846 232.614 190.731 232.611C188.701 232.579 187.226 232.457 184.668 232.457C183.095 232.457 178.739 232.624 176.568 232.624C174.396 232.624 174.113 230.478 175.002 230.279C178.984 229.409 181.987 228.21 183.263 227.057C183.497 226.853 183.797 226.741 184.107 226.741Z" fill="#263238"/>
<path d="M144.227 221.515L149.562 223.364C149.659 223.398 149.742 223.463 149.797 223.55C149.853 223.636 149.876 223.739 149.865 223.841L149.324 228.519C149.315 228.634 149.279 228.745 149.22 228.844C149.161 228.943 149.08 229.026 148.984 229.089C148.887 229.151 148.777 229.19 148.663 229.203C148.549 229.216 148.433 229.203 148.325 229.164C146.392 228.461 143.666 227.385 141.237 226.548C138.408 225.568 137.061 225.356 133.743 224.209C131.739 223.513 132.306 221.348 133.214 221.393C137.351 221.618 138.904 222.398 142.912 221.502C143.343 221.386 143.798 221.39 144.227 221.515Z" fill="#263238"/>
<path d="M174.86 72.5032C173.391 74.0755 171.961 75.506 170.453 76.9429C168.945 78.3799 167.424 79.7589 165.846 81.1249C162.646 83.9289 159.221 86.4655 155.606 88.7092C154.638 89.2962 153.64 89.8339 152.617 90.3202C152.095 90.5779 151.534 90.8163 150.973 91.0483L150.091 91.3705C149.781 91.4736 149.446 91.5703 149.111 91.6605C146.465 92.3484 143.677 92.2567 141.082 91.3963C138.758 90.6104 136.622 89.3534 134.806 87.704C133.956 86.9472 133.166 86.1264 132.441 85.2489C132.08 84.8172 131.739 84.3661 131.417 83.9086C131.094 83.4511 130.811 83.0065 130.469 82.4395L134.026 79.7395L135.044 80.5515C135.405 80.835 135.773 81.0992 136.14 81.3634C136.865 81.8769 137.618 82.3501 138.395 82.781C139.793 83.5757 141.32 84.1188 142.906 84.3855C144.211 84.5837 145.546 84.4303 146.772 83.9409L147.23 83.7475L147.745 83.5091C148.099 83.3287 148.454 83.1547 148.828 82.9356C149.562 82.5297 150.303 82.0335 151.057 81.5309C152.559 80.5128 154.054 79.3594 155.523 78.1415C156.992 76.9236 158.448 75.6606 159.892 74.3526C161.335 73.0445 162.753 71.7106 164.164 70.3639C165.575 69.0171 166.999 67.6188 168.32 66.2914L174.86 72.5032Z" fill="#263238"/>
<path d="M134.058 80.1455L130.837 75.1386L127.615 81.3891C127.615 81.3891 131.352 85.3262 133.201 83.5284L134.058 80.1455Z" fill="#FFC1B0"/>
<path d="M126.938 74.2817L125.205 78.6828L127.563 81.3891L130.811 75.1387L126.938 74.2817Z" fill="#FFC1B0"/>
<path opacity="0.2" d="M146.772 210.277L145.425 216.341L150.316 218.035L151.663 211.965L146.772 210.277Z" fill="black"/>
<path opacity="0.2" d="M188.354 215.368H183.179L183.869 221.541H189.043L188.354 215.368Z" fill="black"/>
<path d="M196.266 72.3034C190.976 90.2042 191.537 109.207 190.841 113.067C186.82 112.532 169.576 110.006 161.296 108.891C160.007 88.155 165.008 74.2623 167.276 68.0956C167.72 66.8845 168.511 65.8313 169.551 65.0679C170.59 64.3045 171.832 63.8649 173.12 63.8041H173.191C173.952 63.7719 174.77 63.7525 175.621 63.759C176.091 63.759 176.568 63.759 177.051 63.759C180.964 64.0596 184.856 64.5845 188.708 65.3313C189.436 65.4666 190.177 65.6212 190.892 65.7823C191.608 65.9434 192.181 66.0981 192.826 66.2592H192.909C193.535 66.4226 194.12 66.711 194.631 67.107C195.141 67.5031 195.566 67.9986 195.88 68.5635C196.194 69.1284 196.39 69.7511 196.456 70.3939C196.523 71.0367 196.458 71.6863 196.266 72.3034Z" fill="#263238"/>
<path d="M182.238 78.1866L182.174 79.1145L188.244 80.1197L188.437 79.3594L182.238 78.1866Z" fill="white"/>
<path opacity="0.3" d="M177.051 63.7913C175.659 65.2475 174.023 77.3876 176.052 83.0259C179.48 77.336 186.362 67.1162 188.701 65.3635C184.851 64.6168 180.961 64.0918 177.051 63.7913Z" fill="white"/>
<path d="M189.32 52.0829C188.083 55.7301 186.42 62.5025 188.708 65.3571C187.844 66.2076 184.262 66.9229 180.975 66.4203C178.275 66.0079 176.987 64.8351 177.058 63.7912C181.375 63.353 181.684 60.2343 181.349 57.225L189.32 52.0829Z" fill="#FFC1B0"/>
<path opacity="0.2" d="M186.04 54.1772L181.349 57.1993C181.435 57.9024 181.461 58.6117 181.426 59.3193C183.057 59.3193 185.486 57.8437 185.886 56.1941C186.057 55.5363 186.109 54.8533 186.04 54.1772Z" fill="black"/>
<path d="M178.102 49.5119C177.38 47.8752 177.109 44.6855 178.469 40.5744C179.577 37.2237 183.089 38.3062 185.518 38.8926C187.948 39.479 187.052 42.7589 185.286 45.1495C183.392 47.6948 178.102 49.5119 178.102 49.5119Z" fill="#263238"/>
<path d="M192.175 46.9215C190.693 51.8381 190.08 54.7893 186.955 56.7547C182.264 59.7123 176.645 55.9814 176.645 50.7233C176.645 45.9871 179.049 38.7444 184.378 37.9131C185.557 37.7217 186.765 37.8351 187.887 38.2425C189.01 38.6499 190.009 39.3379 190.791 40.2408C191.572 41.1438 192.11 42.2317 192.352 43.4011C192.594 44.5705 192.533 45.7824 192.175 46.9215Z" fill="#FFC1B0"/>
<path d="M188.843 52.0443C187.98 50.4784 187.632 46.3609 188.457 43.1132C189.101 40.6517 193.109 40.0911 195.332 41.2316C197.98 42.5913 197.484 45.259 195.493 47.437C193.341 49.7954 188.843 52.0443 188.843 52.0443Z" fill="#263238"/>
<path d="M194.804 42.7395C196.788 42.6235 198.103 39.988 196.492 38.7251C194.598 37.243 191.981 38.7251 189.597 35.4452C187.361 32.3651 181.813 31.8302 179.725 34.5946C178.527 36.1862 179.596 36.8241 176.381 38.7573C174.506 39.8849 175.092 41.7987 175.576 42.7395C175.524 42.0307 175.82 40.2071 177.567 39.8141C179.029 39.4854 179.893 40.7484 180.898 39.6143C180.898 39.6143 184.3 42.7395 190.744 43.2357C194.333 43.5128 194.804 42.7395 194.804 42.7395Z" fill="#263238"/>
<path d="M193.128 52.9464C192.207 53.8511 190.966 54.3559 189.675 54.3511C187.967 54.3511 187.593 52.6757 188.47 51.3161C189.262 50.0918 191.105 48.6226 192.632 49.3057C194.159 49.9887 194.25 51.8252 193.128 52.9464Z" fill="#FFC1B0"/>
<path d="M143.982 214.575L152.262 217.436C152.262 217.436 160.368 185.488 162.907 169.572C163.68 164.726 165.407 158.025 167.495 150.885C170.131 141.864 173.294 132.147 175.93 124.536C178.669 116.52 180.724 110.856 180.724 110.856L162.682 108.427C162.682 108.427 150.638 149.403 148.505 165.048C146.347 181.3 143.982 214.575 143.982 214.575Z" fill="#263238"/>
<path opacity="0.2" d="M167.495 150.872C170.131 141.851 173.294 132.134 175.93 124.524L174.313 120.348C169.473 125.4 167.205 141.844 167.495 150.872Z" fill="black"/>
<path d="M172.425 109.722C172.425 109.722 171.535 154.042 172.753 169.147C174.081 185.688 181.478 220.349 181.478 220.349H190.957C190.957 220.349 189.636 188.555 187.696 172.491C185.486 154.191 190.119 112.107 190.119 112.107L172.425 109.722Z" fill="#263238"/>
<path d="M180.344 220.548H191.505V217.217L179.59 217.004L180.344 220.548Z" fill="#263238"/>
<path d="M142.874 214.408L152.739 217.823L153.841 214.64L143.325 210.277L142.874 214.408Z" fill="#263238"/>
<path d="M184.281 46.5349C184.184 46.9408 183.894 47.2179 183.637 47.1792C183.379 47.1406 183.231 46.7411 183.327 46.3351C183.424 45.9291 183.714 45.6521 183.972 45.6907C184.229 45.7294 184.378 46.1289 184.281 46.5349Z" fill="#263238"/>
<path d="M179.693 45.4523C179.597 45.8582 179.307 46.1418 179.049 46.0967C178.791 46.0515 178.649 45.652 178.746 45.2461C178.843 44.8401 179.133 44.563 179.39 44.6017C179.648 44.6404 179.79 45.0463 179.693 45.4523Z" fill="#263238"/>
<path d="M181.104 46C180.328 47.1271 179.4 48.1419 178.346 49.0157C178.578 49.2788 178.864 49.4883 179.184 49.6296C179.505 49.7709 179.852 49.8407 180.202 49.8341L181.104 46Z" fill="#FF8E8B"/>
<path d="M181.659 51.3291C182.119 51.3769 182.585 51.3314 183.028 51.1952C183.471 51.0591 183.882 50.835 184.236 50.5365C184.26 50.5143 184.274 50.4834 184.275 50.4508C184.276 50.4182 184.265 50.3864 184.242 50.3625C184.22 50.3386 184.189 50.3244 184.157 50.3232C184.124 50.322 184.092 50.3338 184.068 50.3561C183.667 50.6857 183.193 50.9158 182.686 51.0278C182.179 51.1398 181.652 51.1304 181.149 51.0004C181.134 50.9966 181.118 50.9959 181.102 50.9983C181.086 51.0008 181.07 51.0064 181.057 51.0147C181.043 51.0231 181.031 51.0341 181.021 51.0472C181.012 51.0602 181.005 51.075 181.001 51.0906C180.995 51.1221 181.001 51.1548 181.018 51.1822C181.034 51.2096 181.061 51.2298 181.091 51.2388C181.304 51.2775 181.485 51.3097 181.659 51.3291Z" fill="#263238"/>
<path d="M186.04 45.3814C186.08 45.3938 186.123 45.3938 186.163 45.3814C186.192 45.3689 186.219 45.3505 186.241 45.3273C186.264 45.3041 186.281 45.2766 186.293 45.2465C186.304 45.2164 186.309 45.1843 186.308 45.1521C186.307 45.1199 186.299 45.0883 186.285 45.0592C186.136 44.7004 185.904 44.3825 185.607 44.1324C185.309 43.8823 184.956 43.7074 184.577 43.6223C184.546 43.6167 184.513 43.6175 184.482 43.6245C184.45 43.6316 184.421 43.6447 184.394 43.6633C184.368 43.6819 184.345 43.7054 184.328 43.7327C184.311 43.7599 184.299 43.7903 184.294 43.822C184.285 43.8868 184.301 43.9527 184.339 44.0057C184.378 44.0586 184.436 44.0945 184.5 44.1056C184.799 44.1773 185.077 44.3194 185.31 44.52C185.543 44.7206 185.725 44.974 185.84 45.259C185.86 45.2949 185.889 45.325 185.924 45.3464C185.959 45.3679 185.999 45.3799 186.04 45.3814Z" fill="#263238"/>
<path d="M178.082 43.4097C178.123 43.4144 178.165 43.4086 178.203 43.3928C178.242 43.377 178.275 43.3518 178.301 43.3194C178.488 43.0746 178.73 42.8779 179.008 42.7457C179.286 42.6134 179.592 42.5494 179.899 42.5591C179.931 42.5626 179.963 42.5597 179.994 42.5506C180.025 42.5414 180.053 42.5261 180.078 42.5057C180.103 42.4852 180.123 42.46 180.138 42.4315C180.152 42.4031 180.161 42.3719 180.164 42.34C180.169 42.2763 180.15 42.2128 180.111 42.1626C180.071 42.1123 180.014 42.0789 179.951 42.0694C179.561 42.0551 179.173 42.1343 178.82 42.3002C178.467 42.466 178.159 42.7139 177.921 43.023C177.9 43.0479 177.884 43.0766 177.874 43.1077C177.865 43.1387 177.861 43.1714 177.864 43.2038C177.867 43.2362 177.877 43.2676 177.892 43.2964C177.907 43.3251 177.928 43.3504 177.953 43.371C177.992 43.3954 178.037 43.4087 178.082 43.4097Z" fill="#263238"/>
<path d="M182.387 227.649C182.843 227.636 183.297 227.574 183.74 227.463C183.764 227.457 183.786 227.444 183.804 227.425C183.821 227.407 183.832 227.384 183.836 227.36C183.838 227.336 183.834 227.312 183.824 227.291C183.814 227.269 183.798 227.251 183.778 227.237C183.592 227.121 181.923 226.097 181.349 226.386C181.286 226.42 181.233 226.47 181.195 226.531C181.158 226.593 181.137 226.663 181.137 226.734C181.125 226.855 181.142 226.976 181.187 227.088C181.232 227.2 181.303 227.3 181.394 227.379C181.685 227.578 182.035 227.673 182.387 227.649ZM183.385 227.289C182.509 227.463 181.832 227.43 181.549 227.192C181.487 227.139 181.439 227.071 181.409 226.994C181.38 226.918 181.37 226.835 181.381 226.754C181.379 226.724 181.386 226.695 181.399 226.669C181.413 226.643 181.434 226.621 181.459 226.606C181.755 226.451 182.709 226.896 183.385 227.314V227.289Z" fill="#00BAB5"/>
<path d="M183.714 227.463C183.735 227.468 183.757 227.468 183.778 227.463C183.797 227.451 183.811 227.434 183.822 227.415C183.832 227.396 183.837 227.375 183.836 227.353C183.836 227.289 183.708 225.794 183.102 225.304C183.031 225.242 182.948 225.196 182.858 225.169C182.768 225.142 182.673 225.135 182.58 225.149C182.489 225.149 182.401 225.18 182.33 225.238C182.26 225.296 182.211 225.376 182.193 225.465C182.084 226.045 183.121 227.179 183.656 227.469L183.714 227.463ZM182.67 225.381C182.773 225.381 182.872 225.42 182.947 225.491C183.311 225.955 183.525 226.519 183.559 227.108C183.031 226.702 182.367 225.819 182.432 225.51C182.432 225.478 182.432 225.401 182.612 225.381H182.67Z" fill="#00BAB5"/>
<path d="M143.511 221.992C143.534 221.992 143.556 221.986 143.575 221.975C143.595 221.964 143.61 221.947 143.621 221.927C143.635 221.906 143.642 221.882 143.642 221.857C143.642 221.831 143.635 221.807 143.621 221.786C143.441 221.599 141.817 219.917 141.108 220.046C141.043 220.058 140.981 220.086 140.93 220.127C140.878 220.169 140.837 220.223 140.811 220.284C140.76 220.384 140.732 220.494 140.732 220.606C140.732 220.719 140.76 220.829 140.811 220.929C141.185 221.573 142.654 221.882 143.492 221.998L143.511 221.992ZM141.179 220.284C141.591 220.284 142.519 221.057 143.163 221.695C142.023 221.502 141.23 221.173 141.031 220.806C140.996 220.742 140.977 220.67 140.977 220.597C140.977 220.524 140.996 220.452 141.031 220.387C141.038 220.361 141.053 220.337 141.073 220.319C141.094 220.3 141.119 220.288 141.147 220.284H141.179Z" fill="#00BAB5"/>
<path d="M143.512 221.992H143.544C143.565 221.985 143.584 221.973 143.6 221.957C143.615 221.942 143.627 221.923 143.634 221.902C143.634 221.844 143.969 220.484 143.524 219.756C143.462 219.651 143.379 219.56 143.281 219.488C143.182 219.416 143.07 219.364 142.951 219.337C142.622 219.26 142.474 219.389 142.41 219.511C142.126 220.033 142.932 221.489 143.428 221.96C143.439 221.971 143.452 221.979 143.466 221.985C143.481 221.99 143.496 221.993 143.512 221.992ZM142.77 219.582H142.893C142.98 219.601 143.063 219.639 143.135 219.692C143.207 219.746 143.267 219.813 143.312 219.891C143.534 220.439 143.579 221.043 143.441 221.618C142.964 221.051 142.455 219.943 142.622 219.633C142.64 219.612 142.663 219.596 142.689 219.586C142.715 219.577 142.743 219.576 142.77 219.582Z" fill="#00BAB5"/>
<path d="M194.739 67.2837C195.429 68.2116 196.028 69.0364 196.608 69.9321C197.188 70.8278 197.768 71.6977 198.335 72.5934C199.456 74.3848 200.511 76.2298 201.499 78.1286C202.506 80.0492 203.412 82.0216 204.212 84.0375C205.075 86.1569 205.735 88.3533 206.183 90.5972C206.299 91.1901 206.39 91.8022 206.461 92.4208C206.461 92.4659 206.461 92.6592 206.499 92.7817C206.538 92.9041 206.499 93.0652 206.499 93.1876C206.499 93.4518 206.499 93.7031 206.499 93.9351C206.467 94.3681 206.406 94.7986 206.319 95.2239C206.015 96.5365 205.536 97.8022 204.895 98.987C203.839 100.961 202.603 102.833 201.202 104.58C199.869 106.268 198.483 107.854 197.04 109.368C195.596 110.882 194.114 112.326 192.497 113.724L189.172 110.74C191.343 107.428 193.586 104.065 195.48 100.714C196.407 99.1341 197.216 97.4887 197.903 95.7909C198.161 95.1539 198.339 94.4872 198.432 93.8062C198.443 93.7315 198.443 93.6554 198.432 93.5807C198.432 93.5807 198.432 93.6387 198.432 93.5807C198.348 93.2005 198.264 92.8139 198.148 92.4144C197.647 90.7104 197.015 89.0474 196.26 87.4398C195.467 85.7644 194.598 84.0697 193.644 82.4008C192.69 80.7319 191.711 79.0758 190.66 77.4262C190.145 76.61 189.619 75.7938 189.082 74.9776L187.49 72.6127L194.739 67.2837Z" fill="#263238"/>
<path d="M190.551 110.173L185.396 111.746L190.022 116.656C190.022 116.656 193.96 114.31 192.948 112.087L190.551 110.173Z" fill="#FFC1B0"/>
<path d="M183.302 115.477L187.039 119.227L190.048 116.656L185.422 111.752L183.302 115.477Z" fill="#FFC1B0"/>
<path opacity="0.3" d="M171.696 110.618C171.696 110.618 172.682 103.904 174.39 100.637C174.744 103.498 175.943 111.018 175.943 111.018L171.696 110.618Z" fill="white"/>
<path d="M148.744 28.1315H22.9165L26.2286 200.038H152.056L148.744 28.1315Z" fill="#00BAB5"/>
<path opacity="0.8" d="M141.823 33.7891H30.649L33.7421 193.962H144.91L141.823 33.7891Z" fill="white"/>
<path d="M141.804 32.9837H30.6361L35.1532 193.15H146.327L141.804 32.9837Z" fill="white"/>
<path opacity="0.2" d="M62.8871 65.7759L68.8476 48.0169C72.5299 49.3475 75.7296 51.7501 78.0345 54.9152C80.3394 58.0802 81.6439 61.8629 81.7802 65.7759C81.9212 70.1727 80.4743 74.4732 77.7042 77.8906C74.9341 81.3079 71.0261 83.6135 66.6953 84.3855L62.8871 65.7759Z" fill="#00BAB5"/>
<path d="M62.8871 65.776L66.6953 84.3855C65.6143 84.5732 64.5192 84.668 63.4219 84.669C58.3767 84.6181 53.5447 82.6274 49.9276 79.1099C46.3105 75.5924 44.1858 70.8178 43.994 65.776C43.9224 63.3208 44.3444 60.8762 45.235 58.5872C46.1255 56.2981 47.4666 54.2111 49.1786 52.4498C50.8905 50.6885 52.9387 49.2889 55.2016 48.3337C57.4644 47.3786 59.8961 46.8874 62.3523 46.8893C64.567 46.8916 66.7646 47.2775 68.8476 48.0299L62.8871 65.776Z" fill="#00BAB5"/>
<path opacity="0.2" d="M110.004 65.776L109.534 46.8893C114.567 46.9265 119.391 48.91 122.995 52.4245C130.534 59.7575 130.875 71.8202 123.748 79.1468C116.622 86.4733 104.565 86.4797 97.0262 79.1468C94.214 76.4181 92.2877 72.9066 91.4974 69.0687L110.004 65.776Z" fill="#00BAB5"/>
<path d="M110.004 65.7759L91.491 69.0558C90.8855 66.2609 90.9432 63.3631 91.6595 60.5945C92.3757 57.8259 93.7307 55.2636 95.6156 53.1131C97.5006 50.9625 99.8632 49.2834 102.514 48.2105C105.165 47.1375 108.03 46.7005 110.88 46.9344L110.004 65.7759Z" fill="#00BAB5"/>
<path d="M133.24 178.381H46.3332L45.1926 138.146L45.8821 138.139L46.9969 177.691H133.221L133.24 178.381Z" fill="#00BAB5"/>
<path d="M133.201 177.259C133.407 177.261 133.604 177.343 133.751 177.487C133.898 177.631 133.983 177.827 133.988 178.033C133.991 178.133 133.974 178.234 133.938 178.328C133.901 178.422 133.846 178.508 133.776 178.58C133.705 178.652 133.621 178.71 133.528 178.748C133.435 178.787 133.334 178.807 133.234 178.806C133.027 178.806 132.828 178.725 132.68 178.581C132.532 178.436 132.446 178.239 132.441 178.033C132.439 177.932 132.458 177.831 132.495 177.738C132.533 177.644 132.588 177.559 132.659 177.487C132.73 177.415 132.814 177.357 132.907 177.318C133 177.279 133.1 177.259 133.201 177.259Z" fill="#00BAB5"/>
<path d="M46.3138 138.172C46.3055 137.965 46.2176 137.77 46.0687 137.627C45.9197 137.484 45.7212 137.405 45.5148 137.405C45.4141 137.406 45.3146 137.427 45.2222 137.466C45.1297 137.506 45.0462 137.564 44.9765 137.637C44.9069 137.71 44.8525 137.795 44.8165 137.89C44.7806 137.984 44.7638 138.084 44.7673 138.184C44.7724 138.391 44.8583 138.587 45.0066 138.73C45.1548 138.874 45.3536 138.953 45.5599 138.951C45.6611 138.951 45.7613 138.931 45.8545 138.892C45.9476 138.852 46.0319 138.794 46.1023 138.721C46.1726 138.649 46.2276 138.562 46.264 138.468C46.3003 138.374 46.3172 138.273 46.3138 138.172Z" fill="#00BAB5"/>
<path d="M49.3874 175.726L48.8912 175.242L59.1561 164.681H65.2906L68.1001 161.794H76.9345L95.3958 142.798H99.7518L106.073 148.945H110.004L121.551 137.063H132.074L132.087 137.746H121.854L110.307 149.629H105.802L99.4812 143.481H95.6922L77.2309 162.477H68.3965L65.5934 165.371H59.4525L49.3874 175.726Z" fill="#00BAB5"/>
<path d="M49.729 176.003C49.6204 176.113 49.4815 176.188 49.3299 176.219C49.1784 176.25 49.0211 176.235 48.8781 176.176C48.735 176.118 48.6126 176.018 48.5265 175.889C48.4404 175.761 48.3944 175.61 48.3944 175.455C48.3944 175.3 48.4404 175.149 48.5265 175.021C48.6126 174.892 48.735 174.792 48.8781 174.734C49.0211 174.675 49.1784 174.66 49.3299 174.691C49.4815 174.722 49.6204 174.797 49.729 174.907C49.873 175.053 49.9538 175.25 49.9538 175.455C49.9538 175.66 49.873 175.857 49.729 176.003Z" fill="#00BAB5"/>
<path d="M132.061 138.178C132.162 138.178 132.261 138.158 132.354 138.119C132.447 138.08 132.531 138.022 132.601 137.95C132.671 137.878 132.726 137.793 132.763 137.699C132.8 137.605 132.817 137.505 132.815 137.405C132.81 137.199 132.725 137.003 132.578 136.859C132.432 136.715 132.234 136.633 132.029 136.631C131.928 136.631 131.828 136.652 131.735 136.691C131.642 136.73 131.557 136.787 131.486 136.859C131.416 136.931 131.36 137.016 131.322 137.11C131.285 137.203 131.267 137.304 131.268 137.405C131.275 137.611 131.361 137.807 131.509 137.951C131.657 138.095 131.854 138.176 132.061 138.178Z" fill="#00BAB5"/>
<g opacity="0.2">
<path opacity="0.2" d="M49.2779 171.917L48.7817 171.434L61.0313 158.824H71.09L77.9075 165.461H85.5305L92.1869 158.605H100.744L103.534 155.737H111.789L117.466 149.893H120.249L133.208 162.503L132.737 162.986L119.979 150.582H117.762L112.085 156.427H103.837L101.047 159.294H92.4833L85.8269 166.144H77.6433L70.8194 159.513H61.3342L49.2779 171.917Z" fill="#00BAB5"/>
<path opacity="0.2" d="M49.6194 172.188C49.5111 172.299 49.3722 172.375 49.2205 172.407C49.0687 172.439 48.911 172.424 48.7674 172.366C48.6238 172.307 48.5009 172.207 48.4144 172.079C48.3278 171.95 48.2816 171.799 48.2816 171.644C48.2816 171.489 48.3278 171.337 48.4144 171.208C48.5009 171.08 48.6238 170.98 48.7674 170.921C48.911 170.863 49.0687 170.849 49.2205 170.88C49.3722 170.912 49.5111 170.988 49.6194 171.099C49.6913 171.17 49.7483 171.255 49.7873 171.349C49.8262 171.442 49.8463 171.542 49.8463 171.644C49.8463 171.745 49.8262 171.845 49.7873 171.939C49.7483 172.032 49.6913 172.117 49.6194 172.188Z" fill="#00BAB5"/>
<path opacity="0.2" d="M132.409 163.27C132.517 163.376 132.653 163.447 132.802 163.475C132.95 163.504 133.103 163.488 133.242 163.429C133.382 163.371 133.5 163.272 133.584 163.147C133.668 163.021 133.712 162.873 133.712 162.722C133.712 162.571 133.668 162.424 133.584 162.298C133.5 162.172 133.382 162.074 133.242 162.015C133.103 161.957 132.95 161.941 132.802 161.969C132.653 161.997 132.517 162.069 132.409 162.175C132.265 162.32 132.184 162.517 132.184 162.722C132.184 162.927 132.265 163.124 132.409 163.27Z" fill="#00BAB5"/>
</g>
<path d="M53.8336 105.508H44.619L44.3549 96.2935H53.5694L53.8336 105.508Z" fill="#00BAB5"/>
<path d="M101.279 102.57H59.2593L59.1626 99.2319H101.182L101.279 102.57Z" fill="#E0E0E0"/>
<path d="M129.909 102.57H106.531L106.434 99.2319H129.812L129.909 102.57Z" fill="#E0E0E0"/>
<path d="M83.8423 117.107H59.6653L59.5751 113.769H83.7456L83.8423 117.107Z" fill="#E0E0E0"/>
<path d="M119.534 117.107H89.0939L88.9972 113.769H119.444L119.534 117.107Z" fill="#E0E0E0"/>
<path opacity="0.2" d="M54.2395 120.045H45.025L44.7672 110.831H53.9818L54.2395 120.045Z" fill="#00BAB5"/>
<path d="M131.429 82.7488L184.809 112.828L184.139 114.007L131.114 83.3094L131.429 82.7488Z" fill="#E0E0E0"/>
</g>
<defs>
<clipPath id="clip0_93_8666">
<rect width="250" height="250" fill="white"/>
</clipPath>
</defs>
</svg>
